                                                                        S      1
,,8Htiiviste,8Htiiviste,7Hunknown,7Hunknown,32,38,7,99,15,,1.,2,2HMM,1, G      1
0.08,15H20211213.140406,0.01,10000.,7Hunknown,7Hunknown,11,0,;          G      2
     186       1                                                00000000D      1
     186             -55       1       0                               0D      2
     514       2                                                00010000D      3
     514                       1       1                               0D      4
     510       3                                                00010000D      5
     510             -55       1       1                               0D      6
     510       4                                                00010000D      7
     510             -55       1       1                               0D      8
     510       5                                                00010000D      9
     510             -55       1       1                               0D     10
     510       6                                                00010000D     11
     510             -55       1       1                               0D     12
     508       7                                                00010000D     13
     508                       1       1                               0D     14
     508       8                                                00010000D     15
     508                       1       1                               0D     16
     508       9                                                00010000D     17
     508                       1       1                               0D     18
     508      10                                                00010000D     19
     508                       2       1                               0D     20
     508      12                                                00010000D     21
     508                       1       1                               0D     22
     508      13                                                00010000D     23
     508                       1       1                               0D     24
     126      14                                                00010000D     25
     126       0              13       0                               0D     26
     126      27                                                00010000D     27
     126       0              10       0                               0D     28
     126      37                                                00010000D     29
     126       0              15       0                               0D     30
     126      52                                                00010000D     31
     126       0              15       0                               0D     32
     126      67                                                00010000D     33
     126       0               5       0                               0D     34
     126      72                                                00010000D     35
     126       0              10       0                               0D     36
     126      82                                                00010000D     37
     126       0              13       0                               0D     38
     126      95                                                00010000D     39
     126       0               5       0                               0D     40
     128     100                                                00010000D     41
     128       0     -55       9       0                               0D     42
     128     109                                                00010000D     43
     128       0     -55      27       0                               0D     44
     128     136                                                00010000D     45
     128       0     -55      27       0                               0D     46
     128     163                                                00010000D     47
     128       0     -55       9       0                               0D     48
     502     172                                                00010000D     49
     502                       6       1                               0D     50
     504     178                                                00010001D     51
     504                       2       1                               0D     52
     406     180                                                00000000D     53
     406                       1      15                               0D     54
     314     181                                                00000200D     55
     314                       2       0                               0D     56
186,3,1,0,0,1,53;                                                      1P      1
514,4,5,1,7,1,9,1,11,1;                                                3P      2
510,41,2,1,13,15;                                                      5P      3
510,43,1,1,17;                                                         7P      4
510,45,1,1,19;                                                         9P      5
510,47,2,1,21,23;                                                     11P      6
508,2,0,51,1,1,0,0,51,2,1,0;                                          13P      7
508,1,0,51,3,1,0;                                                     15P      8
508,4,0,51,4,0,0,0,51,5,1,0,0,51,3,0,0,0,51,5,0,0;                    17P      9
508,6,0,51,6,0,0,0,51,7,0,0,0,51,8,1,0,0,51,1,0,0,0,51,2,0,0,0,       19P     10
51,8,0,0;                                                             19P     11
508,2,0,51,6,1,0,0,51,7,1,0;                                          21P     12
508,1,0,51,4,1,0;                                                     23P     13
126,6,2,0,0,0,0,-1.51105252691587,-1.51105252691587,                  25P     14
-1.51105252691587,0.0398291999193517,0.0398291999193517,              25P     15
1.59071092675457,1.59071092675457,3.14159265358979,                   25P     16
3.14159265358979,3.14159265358979,1.,0.714112485417958,1.,            25P     17
0.714112485417957,1.,0.714112485417958,1.,-212.000000000008,          25P     18
-5.00000407563367,83.5910895105362,-212.000000000008,                 25P     19
-86.9427752845611,78.689684033591,-212.000000000008,                  25P     20
-83.6740913497983,-3.33444189520309,-212.000000000008,                25P     21
-80.4054074150355,-85.3585678239972,-212.000000000008,                25P     22
1.66754425466517,-83.7239017201578,-212.000000000008,                 25P     23
83.7404959243658,-82.0892356163184,-212.000000000008,                 25P     24
83.7404959243658,-6.54789520963773D-6,-1.51105252691587,              25P     25
3.14159265358979,0.,0.,0.;                                            25P     26
126,4,2,0,0,0,0,3.14159265358979,3.14159265358979,                    27P     27
3.14159265358979,3.95686271692676,3.95686271692676,                   27P     28
4.77213278026372,4.77213278026372,4.77213278026372,1.,                27P     29
0.9180609556135,1.,0.918060955613502,1.,-212.000000000008,            27P     30
83.7404959243658,-6.54789520963773D-6,-212.000000000008,              27P     31
83.7404959243658,36.1610142550441,-212.000000000008,                  27P     32
57.4184983440999,60.955607796683,-212.000000000008,                   27P     33
31.0965007638341,85.750201338322,-212.000000000008,                   27P     34
-5.00000407563368,83.5910895105362,3.14159265358979,                  27P     35
4.77213278026372,0.,0.,0.;                                            27P     36
126,8,2,0,1,0,0,-3.14159265358979,-3.14159265358979,                  29P     37
-3.14159265358979,-1.5707963267949,-1.5707963267949,0.,0.,            29P     38
1.5707963267949,1.5707963267949,3.14159265358979,                     29P     39
3.14159265358979,3.14159265358979,1.,0.707106781186548,1.,            29P     40
0.707106781186547,1.,0.707106781186548,1.,0.707106781186548,1.,       29P     41
-212.000000000008,82.7404959243658,-6.54789520951527D-6,              29P     42
-212.000000000008,82.7404959243657,-82.7405065478946,                 29P     43
-212.000000000008,-4.07563362232844D-6,-82.7405065478946,             29P     44
-212.000000000008,-82.740504075633,-82.7405065478946,                 29P     45
-212.000000000008,-82.740504075633,-6.54789519938248D-6,              29P     46
-212.000000000008,-82.740504075633,82.7404934521042,                  29P     47
-212.000000000008,-4.07563362232844D-6,82.7404934521042,              29P     48
-212.000000000008,82.7404959243657,82.7404934521042,                  29P     49
-212.000000000008,82.7404959243658,-6.54789518924969D-6,              29P     50
-3.14159265358979,3.14159265358979,0.,0.,0.;                          29P     51
126,8,2,0,1,0,0,-3.14159265358979,-3.14159265358979,                  31P     52
-3.14159265358979,-1.5707963267949,-1.5707963267949,0.,0.,            31P     53
1.5707963267949,1.5707963267949,3.14159265358979,                     31P     54
3.14159265358979,3.14159265358979,1.,0.707106781186548,1.,            31P     55
0.707106781186548,1.,0.707106781186547,1.,0.707106781186548,1.,       31P     56
-230.000000000008,82.7404959243658,-6.54789518924969D-6,              31P     57
-230.000000000008,82.7404959243657,82.7404934521042,                  31P     58
-230.000000000008,-4.07563362232844D-6,82.7404934521042,              31P     59
-230.000000000008,-82.740504075633,82.7404934521042,                  31P     60
-230.000000000008,-82.740504075633,-6.54789519938248D-6,              31P     61
-230.000000000008,-82.740504075633,-82.7405065478946,                 31P     62
-230.000000000008,-4.07563362232844D-6,-82.7405065478946,             31P     63
-230.000000000008,82.7404959243657,-82.7405065478946,                 31P     64
-230.000000000008,82.7404959243658,-6.54789520951527D-6,              31P     65
-3.14159265358979,3.14159265358979,0.,0.,0.;                          31P     66
126,1,1,0,0,1,0,-0.0604298982964816,-0.0604298982964816,              33P     67
0.157117735570852,0.157117735570852,1.,1.,-230.000000000008,          33P     68
82.7404959243658,-6.54789519938248D-6,-212.000000000008,              33P     69
82.7404959243658,-6.54789519938248D-6,-0.0604298982964816,            33P     70
0.157117735570852,0.,0.,0.;                                           33P     71
126,4,2,0,0,0,0,-4.77213278026372,-4.77213278026372,                  35P     72
-4.77213278026372,-3.95686271692676,-3.95686271692676,                35P     73
-3.14159265358979,-3.14159265358979,-3.14159265358979,1.,             35P     74
0.918060955613502,1.,0.9180609556135,1.,-230.000000000008,            35P     75
-5.00000407563368,83.5910895105362,-230.000000000008,                 35P     76
31.0965007638341,85.750201338322,-230.000000000008,                   35P     77
57.4184983440999,60.955607796683,-230.000000000008,                   35P     78
83.7404959243658,36.1610142550441,-230.000000000008,                  35P     79
83.7404959243658,-6.54789520963773D-6,-4.77213278026372,              35P     80
-3.14159265358979,0.,0.,0.;                                           35P     81
126,6,2,0,0,0,0,-3.14159265358979,-3.14159265358979,                  37P     82
-3.14159265358979,-1.59071092675457,-1.59071092675457,                37P     83
-0.0398291999193517,-0.0398291999193517,1.51105252691587,             37P     84
1.51105252691587,1.51105252691587,1.,0.714112485417958,1.,            37P     85
0.714112485417957,1.,0.714112485417958,1.,-230.000000000008,          37P     86
83.7404959243658,-6.54789520963773D-6,-230.000000000008,              37P     87
83.7404959243658,-82.0892356163184,-230.000000000008,                 37P     88
1.66754425466517,-83.7239017201578,-230.000000000008,                 37P     89
-80.4054074150355,-85.3585678239972,-230.000000000008,                37P     90
-83.6740913497983,-3.33444189520309,-230.000000000008,                37P     91
-86.9427752845611,78.689684033591,-230.000000000008,                  37P     92
-5.00000407563367,83.5910895105362,-3.14159265358979,                 37P     93
1.51105252691587,0.,0.,0.;                                            37P     94
126,1,1,0,0,1,0,-0.0597082654151818,-0.0597082654151818,              39P     95
0.155241490079473,0.155241490079473,1.,1.,-230.000000000008,          39P     96
83.7404959243658,-6.54789519938248D-6,-212.000000000008,              39P     97
83.7404959243658,-6.54789519938248D-6,-0.0597082654151818,            39P     98
0.155241490079473,0.,0.,0.;                                           39P     99
128,1,1,1,1,0,0,1,0,0,-8.86010960584314,-8.86010960584314,            41P    100
8.86010960584314,8.86010960584314,-8.86010960584314,                  41P    101
-8.86010960584314,8.86010960584314,8.86010960584314,1.,1.,1.,1.,      41P    102
-212.000000000008,-88.601100134065,-88.6011026063266,                 41P    103
-212.000000000008,88.6010919827978,-88.6011026063266,                 41P    104
-212.000000000008,-88.601100134065,88.6010895105362,                  41P    105
-212.000000000008,88.6010919827978,88.6010895105362,                  41P    106
-8.86010960584314,8.86010960584314,-8.86010960584314,                 41P    107
8.86010960584314;                                                     41P    108
128,1,8,1,2,0,1,0,0,1,-0.157117735570852,-0.157117735570852,          43P    109
0.0604298982964816,0.0604298982964816,-3.14159265358979,              43P    110
-3.14159265358979,-3.14159265358979,-1.5707963267949,                 43P    111
-1.5707963267949,0.,0.,1.5707963267949,1.5707963267949,               43P    112
3.14159265358979,3.14159265358979,3.14159265358979,1.,1.,             43P    113
0.707106781186548,0.707106781186548,1.,1.,0.707106781186548,          43P    114
0.707106781186548,1.,1.,0.707106781186548,0.707106781186548,1.,       43P    115
1.,0.707106781186548,0.707106781186548,1.,1.,-212.000000000008,       43P    116
82.7404959243658,-6.54789519938248D-6,-230.000000000008,              43P    117
82.7404959243658,-6.54789519938248D-6,-212.000000000008,              43P    118
82.7404959243658,-82.7405065478946,-230.000000000008,                 43P    119
82.7404959243658,-82.7405065478946,-212.000000000008,                 43P    120
-4.07563361726204D-6,-82.7405065478946,-230.000000000008,             43P    121
-4.07563361726204D-6,-82.7405065478946,-212.000000000008,             43P    122
-82.740504075633,-82.7405065478946,-230.000000000008,                 43P    123
-82.740504075633,-82.7405065478946,-212.000000000008,                 43P    124
-82.740504075633,-6.54789519938248D-6,-230.000000000008,              43P    125
-82.740504075633,-6.54789519938248D-6,-212.000000000008,              43P    126
-82.740504075633,82.7404934521042,-230.000000000008,                  43P    127
-82.740504075633,82.7404934521042,-212.000000000008,                  43P    128
-4.07563361726204D-6,82.7404934521042,-230.000000000008,              43P    129
-4.07563361726204D-6,82.7404934521042,-212.000000000008,              43P    130
82.7404959243658,82.7404934521042,-230.000000000008,                  43P    131
82.7404959243658,82.7404934521042,-212.000000000008,                  43P    132
82.7404959243658,-6.54789519938248D-6,-230.000000000008,              43P    133
82.7404959243658,-6.54789519938248D-6,-0.157117735570852,             43P    134
0.0604298982964816,-3.14159265358979,3.14159265358979;                43P    135
128,1,8,1,2,0,1,0,0,1,-0.155241490079473,-0.155241490079473,          45P    136
0.0597082654151818,0.0597082654151818,-3.14159265358979,              45P    137
-3.14159265358979,-3.14159265358979,-1.5707963267949,                 45P    138
-1.5707963267949,0.,0.,1.5707963267949,1.5707963267949,               45P    139
3.14159265358979,3.14159265358979,3.14159265358979,1.,1.,             45P    140
0.707106781186548,0.707106781186548,1.,1.,0.707106781186548,          45P    141
0.707106781186548,1.,1.,0.707106781186548,0.707106781186548,1.,       45P    142
1.,0.707106781186548,0.707106781186548,1.,1.,-230.000000000008,       45P    143
83.7404959243658,-6.54789519938248D-6,-212.000000000008,              45P    144
83.7404959243658,-6.54789519938248D-6,-230.000000000008,              45P    145
83.7404959243658,-83.7405065478946,-212.000000000008,                 45P    146
83.7404959243658,-83.7405065478946,-230.000000000008,                 45P    147
-4.07563361726204D-6,-83.7405065478946,-212.000000000008,             45P    148
-4.07563361726204D-6,-83.7405065478946,-230.000000000008,             45P    149
-83.740504075633,-83.7405065478946,-212.000000000008,                 45P    150
-83.740504075633,-83.7405065478946,-230.000000000008,                 45P    151
-83.740504075633,-6.54789519938248D-6,-212.000000000008,              45P    152
-83.740504075633,-6.54789519938248D-6,-230.000000000008,              45P    153
-83.740504075633,83.7404934521042,-212.000000000008,                  45P    154
-83.740504075633,83.7404934521042,-230.000000000008,                  45P    155
-4.07563361726204D-6,83.7404934521042,-212.000000000008,              45P    156
-4.07563361726204D-6,83.7404934521042,-230.000000000008,              45P    157
83.7404959243658,83.7404934521042,-212.000000000008,                  45P    158
83.7404959243658,83.7404934521042,-230.000000000008,                  45P    159
83.7404959243658,-6.54789519938248D-6,-212.000000000008,              45P    160
83.7404959243658,-6.54789519938248D-6,-0.155241490079473,             45P    161
0.0597082654151818,-3.14159265358979,3.14159265358979;                45P    162
128,1,1,1,1,0,0,1,0,0,-8.37504999999994,-8.37504999999994,            47P    163
8.69527712089275,8.69527712089275,-8.5368561276102,                   47P    164
-8.5368561276102,8.57602078862172,8.57602078862172,1.,1.,1.,1.,       47P    165
-230.000000000008,83.7504959243658,-85.3685678239972,                 47P    166
-230.000000000008,-86.9527752845611,-85.3685678239972,                47P    167
-230.000000000008,83.7504959243658,85.760201338322,                   47P    168
-230.000000000008,-86.9527752845611,85.760201338322,                  47P    169
-8.37504999999994,8.69527712089275,-8.5368561276102,                  47P    170
8.57602078862172;                                                     47P    171
502,6,-212.000000000008,-5.00000407563366,83.5910895105362,           49P    172
-212.000000000008,83.7404959243658,-6.54789519938248D-6,              49P    173
-212.000000000008,82.7404959243658,-6.54789520951527D-6,              49P    174
-230.000000000008,82.7404959243658,-6.54789520951527D-6,              49P    175
-230.000000000008,-5.00000407563366,83.5910895105362,                 49P    176
-230.000000000008,83.7404959243658,-6.54789519938248D-6;              49P    177
504,8,25,49,1,49,2,27,49,2,49,1,29,49,3,49,3,31,49,4,49,4,33,49,      51P    178
4,49,3,35,49,5,49,6,37,49,6,49,5,39,49,6,49,2;                        51P    179
406,1,5HBody2;                                                        53P    180
314,76.8627450980392,20.7843137254902,15.2941176470588,21HPlasti      55P    181
c - Matte (Red);                                                      55P    182
S      1G      2D     56P    182                                        T      1
